# xmcd
# 
# Track frame offsets:
#     150
#     12096
#     24931
#     38738
#     54119
#     69398
#     84563
#     96083
#     117795
#     132432
#     148034
# 
# Disc length: 2183
# 
# Revision: 0
# Processed by: cddbd v1.5.2PL0 Copyright (c) Steve Scherf et al.
# Submitted via: fre:ac v1.0.27
# 
DISCID=8308850b
DTITLE=Merle Haggard - The  Epic Years: The Box Set Series- cd 3 of 4
DYEAR=2013
DGENRE=Country
TTITLE0=Shopping For Dresses
TTITLE1=Let's Chase Each Other Around The Room
TTITLE2=I Had A Beautiful Time
TTITLE3=Twinkle Twinkle Lucky Star
TTITLE4=Kern River
TTITLE5=Chill Factor
TTITLE6=This Song Is Mine
TTITLE7=Pancho And Lefty-  w/ Willie Nelson
TTITLE8=Yesterday's Wine- w/ George Jones
TTITLE9=I Can't Hold Myself In Line- w/ Johnny Paycheck
TTITLE10=Reasons To Quit- w/ Willie Nelson
EXTD=
EXTT0=
EXTT1=
EXTT2=
EXTT3=
EXTT4=
EXTT5=
EXTT6=
EXTT7=
EXTT8=
EXTT9=
EXTT10=
PLAYORDER=
